<?xml version="1.0" encoding="UTF-8"?>
<svg version="1.1" viewBox="0 0 1066.7 566.89" xml:space="preserve" xmlns="http://www.w3.org/2000/svg" xmlns:cc="http://creativecommons.org/ns#" xmlns:dc="http://purl.org/dc/elements/1.1/" xmlns:rdf="http://www.w3.org/1999/02/22-rdf-syntax-ns#"><metadata><rdf:RDF><cc:Work rdf:about=""><dc:format>image/svg+xml</dc:format><dc:type rdf:resource="http://purl.org/dc/dcmitype/StillImage"/></cc:Work></rdf:RDF></metadata><defs><clipPath id="a"><path d="M 0,425.17 H 800 V 0 H 0 Z"/></clipPath></defs><g transform="matrix(1.3333 0 0 -1.3333 0 566.89)"><g clip-path="url(#a)"><g transform="translate(313.18 180.69)"><path d="m0 0 11.183 127.82s2.396 27.39-24.994 27.39h-127.82s-27.39 0-29.786-27.39l-11.182-127.82s-2.397-27.39 24.993-27.39h127.82s27.39 0 29.786 27.39m-43.252 27.39c-0.799-9.13-9.93-9.13-9.93-9.13h-82.167l7.189 82.168c0.799 9.131 9.928 9.131 9.928 9.131h82.168z" fill="#e31837"/></g><g transform="translate(742.28 180.69)"><path d="m0 0 11.182 127.82s2.397 27.39-24.993 27.39h-127.82s-27.39 0-29.786-27.39l-11.183-127.82s-2.395-27.39 24.994-27.39h127.82s27.39 0 29.786 27.39m-43.252 27.39c-0.799-9.13-9.93-9.13-9.93-9.13h-82.167l7.188 82.168c0.799 9.131 9.93 9.131 9.93 9.131h82.168z" fill="#e31837"/></g><g transform="translate(513.92 335.9)"><path d="m0 0h-127.82s-27.39 0-29.787-27.39l-11.183-127.82s-2.395-27.389 24.995-27.389h86.733l-1.198-13.695c-0.8-9.13-9.929-9.13-9.929-9.13h-59.343l-3.195-36.519s-0.798-9.129 8.331-9.129h77.604s27.39 0 29.784 27.388l3.638 41.569c7.904 1.358 23.401 6.599 25.179 26.905l11.181 127.82s2.397 27.39-24.993 27.39m-22.255-45.648-7.188-82.169c-0.799-9.13-9.928-9.13-9.928-9.13h-82.168l7.188 82.168c0.799 9.131 9.93 9.131 9.93 9.131z" fill="#e31837"/></g><g transform="translate(162.71 130.48)"><path d="m0 0h-68.475l18.012 205.88h-36.518s-9.13 0-9.929-9.129l-17.213-196.75-2.123-24.259-0.039-0.456s-1.832-20.934 19.103-20.934h84.058s9.129 0 9.929 9.128z" fill="#e31837"/></g></g></g></svg>